#!OML:ASF \\sashay\E\basketball\basketball\Project 1\Capture day 1\Session 1\Subject.ASF
:FULLY-SPECIFIED
:DEGREES
103
root -8.4417 12.0123 -1.08297 -174.768 8.45098 -181.817
lowerback 46.097 -1.38466 -1.12785
upperback 12.3246 2.97693 0.686212
thorax -7.35826 3.32043 -0.212018
lowerneck -10.18 -6.94428 -11.1346
upperneck -32.4534 1.15141 19.4087
head -8.22536 3.24086 8.57753
rclavicle 3.49861e-014 -7.95139e-016
rhumerus 12.3786 -35.402 -49.0823
rradius 86.2253
rwrist -31.151
rhand -44.1003 69.48
rfingers 7.12502
rthumb -16.9177 40.1968
lclavicle 3.49861e-014 -7.95139e-016
lhumerus -27.3965 23.4853 52.8234
lradius 66.2225
lwrist 46.5207
lhand -29.918 19.1209
lfingers 7.12502
lthumb -3.23827 49.0761
rfemur -60.1486 -34.8692 -0.527755
rtibia 67.8666
rfoot -2.62746 -18.9526
rtoes -12.4843
lfemur -40.8143 39.6337 9.11814
ltibia 75.9189
lfoot -5.64416 -14.4924
ltoes 0.585772
104
root -8.04579 12.007 -1.16521 -175.788 9.31884 -182.715
lowerback 46.3819 -1.72381 -0.895417
upperback 12.4205 2.64399 -0.164945
thorax -7.27052 3.2359 -1.10283
lowerneck -11.0772 -7.07124 -11.9853
upperneck -30.9463 0.613099 19.5358
head -7.41739 2.96691 8.70905
rclavicle -6.12257e-014 -4.37326e-015
rhumerus 14.2563 -34.8341 -49.8245
rradius 85.9065
rwrist -30.8518
rhand -44.0891 69.251
rfingers 7.12502
rthumb -16.907 39.9669
lclavicle -6.12257e-014 -4.37326e-015
lhumerus -28.406 24.4965 52.8186
lradius 66.8756
lwrist 47.6345
lhand -29.815 19.2904
lfingers 7.12502
lthumb -3.13879 49.247
rfemur -61.2223 -35.1589 -0.296948
rtibia 71.0498
rfoot -4.80408 -17.7384
rtoes 3.05648
lfemur -37.2151 38.8812 10.6426
ltibia 73.2595
lfoot -9.26041 -11.3692
ltoes -44.1806
105
root -7.65813 11.9992 -1.24958 -176.549 10.1427 -183.538
lowerback 46.1723 -2.13982 -0.563942
upperback 12.6633 2.26983 -0.945529
thorax -6.91489 3.1338 -1.92906
lowerneck -10.6455 -6.57825 -11.5829
upperneck -30.957 1.01132 18.6901
head -7.60225 3.10298 8.31551
rclavicle 2.94201e-014 -8.34896e-015
rhumerus 16.3883 -34.1843 -50.5756
rradius 85.4746
rwrist -30.7352
rhand -43.9154 68.8686
rfingers 7.12502
rthumb -16.7398 39.5703
lclavicle 2.94201e-014 -8.34896e-015
lhumerus -29.362 25.6387 53.0293
lradius 67.8176
lwrist 48.3044
lhand -29.912 19.1122
lfingers 7.12502
lthumb -3.23249 49.0674
rfemur -62.5965 -35.6418 0.710108
rtibia 74.0017
rfoot -2.99179 -17.6593
rtoes -5.37882
lfemur -33.6616 37.4856 12.4845
ltibia 70.4558
lfoot -8.38828 -9.63092
ltoes -50.7538
106
root -7.2702 12.0094 -1.33636 -177.174 10.857 -184.341
lowerback 45.5934 -2.64254 -0.205365
upperback 12.988 1.78956 -1.76212
thorax -6.39561 2.98527 -2.75158
lowerneck -10.2482 -6.03823 -12.5181
upperneck -30.6593 1.46358 18.0342
head -7.65781 3.37258 8.23551
rclavicle -1.35174e-014 -2.46493e-014
rhumerus 18.5019 -33.4727 -51.5248
rradius 85.0357
rwrist -30.6309
rhand -43.8298 68.3403
rfingers 7.12502
rthumb -16.6574 39.0351
lclavicle -1.35174e-014 -2.46493e-014
lhumerus -30.3031 26.925 53.1089
lradius 68.8494
lwrist 48.6259
lhand -29.7889 19.0302
lfingers 7.12502
lthumb -3.1136 48.9872
rfemur -63.6734 -36.0548 1.56152
rtibia 76.5683
rfoot -2.30877 -16.9731
rtoes -11.0777
lfemur -30.1467 35.6716 14.1664
ltibia 67.3306
lfoot -6.26553 -8.77586
ltoes -52.1083
107
root -6.87013 12.0475 -1.42362 -177.703 11.4128 -184.894
lowerback 44.8789 -3.13036 0.185133
upperback 13.2963 1.33239 -2.38606
thorax -5.88045 2.83117 -3.3966
lowerneck -9.83295 -5.74321 -12.9208
upperneck -30.5354 1.65305 17.7553
head -7.72537 3.44417 8.20645
rclavicle 1.90833e-014 -2.42517e-014
rhumerus 20.3401 -32.5824 -52.335
rradius 84.6669
rwrist -30.2523
rhand -43.8333 67.6535
rfingers 7.12502
rthumb -16.6608 38.3485
lclavicle 1.90833e-014 -2.42517e-014
lhumerus -31.2985 28.1433 53.0893
lradius 69.7313
lwrist 48.8297
lhand -29.3559 19.1652
lfingers 7.12502
lthumb -2.69543 49.128
rfemur -64.4458 -36.6036 2.75704
rtibia 78.8763
rfoot -3.17738 -15.8416
rtoes -10.4888
lfemur -26.8264 33.2283 15.7379
ltibia 63.9687
lfoot -3.93671 -7.51958
ltoes -53.3129
108
root -6.4596 12.0998 -1.50896 -178.084 11.8174 -185.216
lowerback 44.0664 -3.56629 0.808862
upperback 13.5965 1.03571 -2.86963
thorax -5.35346 2.74915 -4.07925
lowerneck -9.38193 -5.56007 -13.8161
upperneck -30.3014 1.64663 17.5527
head -7.72194 3.4529 8.29783
rclavicle 5.48646e-014 -2.14687e-014
rhumerus 21.716 -31.9148 -52.7582
rradius 84.305
rwrist -29.5416
rhand -44.1323 67.0376
rfingers 7.12502
rthumb -16.9486 37.7571
lclavicle 5.48646e-014 -2.14687e-014
lhumerus -31.8784 28.6147 53.3074
lradius 70.4934
lwrist 48.8878
lhand -29.0775 18.952
lfingers 7.12502
lthumb -2.42654 48.9179
rfemur -65.1611 -37.3397 4.3997
rtibia 81.0559
rfoot -5.98248 -15.3622
rtoes -11.4221
lfemur -23.8718 30.5293 17.1712
ltibia 60.4239
lfoot -1.19977 -5.94157
ltoes -54.2718
109
root -6.03732 12.1506 -1.59398 -178.52 12.2628 -185.786
lowerback 43.3036 -3.74356 1.19938
upperback 13.864 0.95408 -3.43437
thorax -4.86257 2.77181 -4.82181
lowerneck -9.29894 -5.5219 -15.584
upperneck -29.438 1.52689 18.0196
head -7.39723 3.43744 8.78209
rclavicle 1.66979e-014 -3.97569e-015
rhumerus 22.5232 -31.7278 -53.0411
rradius 83.9238
rwrist -28.6194
rhand -44.1471 67.3587
rfingers 7.12502
rthumb -16.9628 38.0794
lclavicle 1.66979e-014 -3.97569e-015
lhumerus -31.919 28.2891 53.6867
lradius 71.204
lwrist 48.6681
lhand -28.9344 18.4907
lfingers 7.12502
lthumb -2.28833 48.4582
rfemur -65.7567 -38.1416 5.87143
rtibia 83.1389
rfoot -8.56253 -15.1965
rtoes -10.4956
lfemur -21.0617 27.7737 18.1549
ltibia 56.7826
lfoot 2.11553 -4.32577
ltoes -54.6731
110
root -5.60358 12.1988 -1.67922 -179.019 12.6712 -186.622
lowerback 42.5891 -3.65753 0.864085
upperback 13.9659 0.840925 -3.96627
thorax -4.56132 2.72972 -5.15312
lowerneck -8.20373 -4.96355 -15.6953
upperneck -29.1978 1.71164 17.2393
head -7.5646 3.41162 8.50748
rclavicle 2.62396e-014 -5.40694e-014
rhumerus 22.9756 -31.1934 -53.4641
rradius 83.677
rwrist -27.9881
rhand -43.7772 67.7745
rfingers 7.12502
rthumb -16.6067 38.465
lclavicle 2.62396e-014 -5.40694e-014
lhumerus -32.2685 27.9727 53.5101
lradius 71.8161
lwrist 48.5057
lhand -28.5652 18.3634
lfingers 7.12502
lthumb -1.93183 48.3344
rfemur -66.1059 -39.0475 6.99778
rtibia 85.0658
rfoot -11.2552 -14.9594
rtoes -8.69433
lfemur -18.489 24.648 18.5539
ltibia 53.1283
lfoot 6.12716 -2.10581
ltoes -54.0012
111
root -5.15923 12.2562 -1.76291 -179.311 12.9439 -187.328
lowerback 41.6896 -3.54884 0.323797
upperback 13.9089 0.592409 -4.51044
thorax -4.38756 2.57842 -5.342
lowerneck -7.73794 -4.42952 -15.0831
upperneck -28.2216 1.88258 16.7921
head -7.35708 3.2638 8.19064
rclavicle 1.07344e-014 -3.06128e-014
rhumerus 23.0493 -30.233 -54.0748
rradius 83.6411
rwrist -27.6572
rhand -43.4516 67.706
rfingers 7.12502
rthumb -16.2933 38.3705
lclavicle 1.07344e-014 -3.06128e-014
lhumerus -32.8789 27.8406 52.528
lradius 72.3442
lwrist 48.7281
lhand -27.9189 18.6565
lfingers 7.12502
lthumb -1.3076 48.6322
rfemur -66.2906 -39.8996 8.17379
rtibia 86.723
rfoot -14.0737 -14.5685
rtoes -8.12858
lfemur -16.4771 21.4877 18.6509
ltibia 49.663
lfoot 10.5104 0.623824
ltoes -52.0344
